<svg id="kity_svg_6" xmlns="http://www.w3.org/2000/svg" xmlns:xlink="http://www.w3.org/1999/xlink" version="1.1" width="1359" height="1932" style="background: rgb(251, 251, 251); visibility: visible;" viewBox="0 0 1359 1932"><defs id="kity_defs_7"><linearGradient id="kity_linearGradient_17" x1="0" y1="0" x2="0" y2="1"><stop id="kity_stop_18" offset="0" stop-color="rgb(255, 255, 255)"></stop><stop id="kity_stop_19" offset="1" stop-color="rgb(204, 204, 204)"></stop></linearGradient><marker id="kity_marker_2" orient="auto" refX="6" refY="0" viewBox="-7 -7 14 14" markerWidth="7" markerHeight="7" markerUnits="userSpaceOnUse"><path id="kity_path_3" fill="rgb(191, 115, 148)" stroke="none" d="M6,0A6,6,0,1,1,-6,0A6,6,0,1,1,6,0"></path></marker></defs><g id="kity_g_8"><g id="minder1" text-rendering="geometricPrecision"><g id="minder_connect_group1"><path id="kity_path_547" fill="none" stroke="rgb(191, 115, 148)" stroke-width="1" d="M525.5000234432518,1089.5000175498426A70,497,0,0,1,455.50002344325185,1586.5000175498426"></path><path id="kity_path_557" fill="none" stroke="rgb(191, 115, 148)" stroke-width="1" d="M525.5000234432518,1089.5000175498426A37,413,0,0,1,562.5000234432518,676.5000175498426"></path><path id="kity_path_577" fill="none" stroke="rgb(191, 115, 148)" stroke-width="1" d="M525.5000234432518,1089.5000175498426A145,385,0,0,0,380.50002344325185,704.5000175498426"></path><path id="kity_path_883" fill="none" stroke="rgb(191, 115, 148)" stroke-width="1" d="M525.5000234432518,1089.5000175498426A96,460,0,0,0,621.5000234432518,1549.5000175498426"></path><path id="kity_path_1032" fill="none" stroke="rgb(191, 115, 148)" stroke-width="1" d="M246.50002344325185,704.5000175498426C243.50002344325185,704.5000175498426,243.50002344325185,452.5000175498426,240.50002344325185,452.5000175498426L20.500023443251848,452.5000175498426"></path><path id="kity_path_1033" fill="none" stroke="rgb(191, 115, 148)" stroke-width="1" d="M246.50002344325185,704.5000175498426C243.50002344325185,704.5000175498426,243.50002344325185,695.5000175498426,240.50002344325185,695.5000175498426L20.500023443251848,695.5000175498426"></path><path id="kity_path_1034" fill="none" stroke="rgb(191, 115, 148)" stroke-width="1" d="M246.50002344325185,704.5000175498426C243.50002344325185,704.5000175498426,243.50002344325185,938.5000175498426,240.50002344325185,938.5000175498426L20.500023443251848,938.5000175498426"></path><path id="kity_path_1035" fill="none" stroke="rgb(191, 115, 148)" stroke-width="1" d="M246.50002344325185,704.5000175498426C243.50002344325185,704.5000175498426,243.50002344325185,1181.5000175498426,240.50002344325185,1181.5000175498426L20.500023443251848,1181.5000175498426"></path><path id="kity_path_1036" fill="none" stroke="rgb(191, 115, 148)" stroke-width="1" d="M1023.5000234432518,1269.5000175498426C1026.5000234432518,1269.5000175498426,1026.5000234432518,1269.5000175498426,1029.5000234432518,1269.5000175498426L1113.5000234432518,1269.5000175498426"></path><path id="kity_path_1037" fill="none" stroke="rgb(191, 115, 148)" stroke-width="1" d="M894.5000234432518,1269.5000175498426C897.5000234432518,1269.5000175498426,897.5000234432518,1269.5000175498426,900.5000234432518,1269.5000175498426L1023.5000234432518,1269.5000175498426"></path><path id="kity_path_1038" fill="none" stroke="rgb(191, 115, 148)" stroke-width="1" d="M730.5000234432518,676.5000175498426C754.5000234432518,676.5000175498426,754.5000234432518,1269.5000175498426,778.5000234432518,1269.5000175498426L894.5000234432518,1269.5000175498426"></path><path id="kity_path_1039" fill="none" stroke="rgb(191, 115, 148)" stroke-width="1" d="M1001.5000234432518,785.5000175498426C1051.0000234432518,785.5000175498426,1051.0000234432518,745.5000175498426,1100.5000234432518,745.5000175498426L1339.5000234432518,745.5000175498426"></path><path id="kity_path_1040" fill="none" stroke="rgb(191, 115, 148)" stroke-width="1" d="M1001.5000234432518,785.5000175498426C1046.0000234432518,785.5000175498426,1046.0000234432518,1034.5000175498426,1090.5000234432518,1034.5000175498426L1310.5000234432518,1034.5000175498426"></path><path id="kity_path_1041" fill="none" stroke="rgb(191, 115, 148)" stroke-width="1" d="M1001.5000234432518,785.5000175498426C1048.0000234432518,785.5000175498426,1048.0000234432518,1230.5000175498426,1094.5000234432518,1230.5000175498426L1314.5000234432518,1230.5000175498426"></path><path id="kity_path_1042" fill="none" stroke="rgb(191, 115, 148)" stroke-width="1" d="M730.5000234432518,676.5000175498426C756.5000234432518,676.5000175498426,756.5000234432518,785.5000175498426,782.5000234432518,785.5000175498426L1001.5000234432518,785.5000175498426"></path><path id="kity_path_1043" fill="none" stroke="rgb(191, 115, 148)" stroke-width="1" d="M893.5000234432518,345.5000175498426C913.0000234432518,345.5000175498426,913.0000234432518,257.5000175498426,932.5000234432518,257.5000175498426L1150.5000234432518,257.5000175498426"></path><path id="kity_path_1044" fill="none" stroke="rgb(191, 115, 148)" stroke-width="1" d="M893.5000234432518,345.5000175498426C912.5000234432518,345.5000175498426,912.5000234432518,545.5000175498426,931.5000234432518,545.5000175498426L1151.5000234432518,545.5000175498426"></path><path id="kity_path_1045" fill="none" stroke="rgb(191, 115, 148)" stroke-width="1" d="M730.5000234432518,676.5000175498426C757.0000234432518,676.5000175498426,757.0000234432518,345.5000175498426,783.5000234432518,345.5000175498426L893.5000234432518,345.5000175498426"></path><path id="kity_path_1048" fill="none" stroke="rgb(191, 115, 148)" stroke-width="1" d="M727.5000234432518,1549.5000175498426C763.0000234432518,1549.5000175498426,763.0000234432518,1441.5000175498426,798.5000234432518,1441.5000175498426L1018.5000234432518,1441.5000175498426"></path><path id="kity_path_1049" fill="none" stroke="rgb(191, 115, 148)" stroke-width="1" d="M727.5000234432518,1549.5000175498426C755.0000234432518,1549.5000175498426,755.0000234432518,1803.5000175498426,782.5000234432518,1803.5000175498426L1002.5000234432518,1803.5000175498426"></path><path id="kity_path_1054" fill="none" stroke="rgb(191, 115, 148)" stroke-width="1" d="M274.50002344325185,1586.5000175498426C271.50002344325185,1586.5000175498426,271.50002344325185,1396.5000175498426,268.50002344325185,1396.5000175498426L48.50002344325185,1396.5000175498426"></path><path id="kity_path_1055" fill="none" stroke="rgb(191, 115, 148)" stroke-width="1" d="M274.50002344325185,1586.5000175498426C271.50002344325185,1586.5000175498426,271.50002344325185,1531.5000175498426,268.50002344325185,1531.5000175498426L48.50002344325185,1531.5000175498426"></path><path id="kity_path_1056" fill="none" stroke="rgb(191, 115, 148)" stroke-width="1" d="M274.50002344325185,1586.5000175498426C271.50002344325185,1586.5000175498426,271.50002344325185,1668.5000175498426,268.50002344325185,1668.5000175498426L48.50002344325185,1668.5000175498426"></path><path id="kity_path_1057" fill="none" stroke="rgb(191, 115, 148)" stroke-width="1" d="M274.50002344325185,1586.5000175498426C271.50002344325185,1586.5000175498426,271.50002344325185,1911.5000175498426,268.50002344325185,1911.5000175498426L47.50002344325185,1911.5000175498426"></path></g><g id="minder_node1"><path id="node_outline1" fill="#c00000" stroke="rgb(191, 115, 148)" d="M456.50002344325185,1071.5000175498426h138a5,5,0,0,1,5,5v26a5,5,0,0,1,-5,5h-138a5,5,0,0,1,-5,-5v-26a5,5,0,0,1,5,-5z" stroke-width="3"></path><g id="node_text1" fill="white"><text id="kity_text_22" text-rendering="inherit" font-size="24" dy=".8em" y="1077.0200175057353" font-family="times new roman" x="463.50002344325185">MicrobioSee</text></g></g><g id="kity_g_14" display="none"><path id="kity_path_15" fill="rgba(153, 0, 66, 0.5)" stroke="none" d="M724.5000234432518,1029.5000175498426h220v15h-220z"></path><path id="kity_path_16" fill="none" stroke="rgb(128, 0, 55)" d="M724.5000234432518,1044.5000175498426L944.5000234432518,1044.5000175498426" stroke-width="1"></path></g><g id="minder_node48" opacity="1"><g id="node_expander51" style="cursor: pointer;"><path id="kity_path_761" fill="white" stroke="gray" d="M273.50001322105527,1586.5000434704125A6,6,0,1,1,261.50001322105527,1586.5000434704125A6,6,0,1,1,273.50001322105527,1586.5000434704125"></path><path id="kity_path_762" fill="none" stroke="gray" d="M263.00001322105527,1586.5000434704125L272.00001322105527,1586.5000434704125"></path></g><path id="node_outline52" fill="#f6eeee" stroke="rgb(191, 115, 148)" d="M277.500014629215,1568.5000434704125h173a3,3,0,0,1,3,3v30a3,3,0,0,1,-3,3h-173a3,3,0,0,1,-3,-3v-30a3,3,0,0,1,3,-3z" stroke-width="1"></path><g id="node_text52" fill="black"><text id="kity_text_603" text-rendering="inherit" font-family="times new roman" font-size="24" dy=".8em" y="1574.0200434263052" x="294.500014629215">Transcriptome</text></g></g><g id="minder_node53" opacity="1"><g id="node_expander61" style="cursor: pointer;"><path id="kity_path_791" fill="white" stroke="gray" d="M563.5000283457339,676.4999960102141A6,6,0,1,1,551.5000283457339,676.4999960102141A6,6,0,1,1,563.5000283457339,676.4999960102141"></path><path id="kity_path_792" fill="none" stroke="gray" d="M553.0000283457339,676.4999960102141L562.0000283457339,676.4999960102141"></path></g><path id="node_outline62" fill="#f6eeee" stroke="rgb(191, 115, 148)" d="M567.5000297538936,658.4999960102141h160a3,3,0,0,1,3,3v30a3,3,0,0,1,-3,3h-160a3,3,0,0,1,-3,-3v-30a3,3,0,0,1,3,-3z" stroke-width="1"></path><g id="node_text62" fill="black"><text id="kity_text_623" text-rendering="inherit" font-family="times new roman" font-size="24" dy=".8em" y="664.0199959661066" x="584.5000297538936">Metagenome</text></g></g><g id="minder_node63" opacity="1"><g id="node_expander69" style="cursor: pointer;"><path id="kity_path_815" fill="white" stroke="gray" d="M391.50001937523484,704.4999974705279A6,6,0,1,1,379.50001937523484,704.4999974705279A6,6,0,1,1,391.50001937523484,704.4999974705279"></path><path id="kity_path_816" fill="none" stroke="gray" d="M381.00001937523484,704.4999974705279L390.00001937523484,704.4999974705279"></path></g><path id="node_outline70" fill="#f6eeee" stroke="rgb(191, 115, 148)" d="M249.5000131689012,686.4999974705279h126a3,3,0,0,1,3,3v30a3,3,0,0,1,-3,3h-126a3,3,0,0,1,-3,-3v-30a3,3,0,0,1,3,-3z" stroke-width="1"></path><g id="node_text70" fill="black"><text id="kity_text_639" text-rendering="inherit" font-family="times new roman" font-size="24" dy=".8em" y="692.0199974264204" x="266.5000131689012">Proteome</text></g></g><g id="minder_node75" opacity="1"><g id="node_expander74" style="cursor: pointer;"><path id="kity_path_888" fill="white" stroke="gray" d="M740.5000375770032,1549.5000415407121A6,6,0,1,1,728.5000375770032,1549.5000415407121A6,6,0,1,1,740.5000375770032,1549.5000415407121"></path><path id="kity_path_889" fill="none" stroke="gray" d="M730.0000375770032,1549.5000415407121L739.0000375770032,1549.5000415407121"></path></g><path id="node_outline75" fill="#f6eeee" stroke="rgb(191, 115, 148)" d="M626.5000328309834,1531.5000415407121h98a3,3,0,0,1,3,3v30a3,3,0,0,1,-3,3h-98a3,3,0,0,1,-3,-3v-30a3,3,0,0,1,3,-3z" stroke-width="1"></path><g id="node_text75" fill="black"><text id="kity_text_885" text-rendering="inherit" font-size="24" dy=".8em" y="1537.0200414966048" font-family="times new roman" x="643.5000328309834">Others</text></g></g><g id="kity_g_12" display="none"><path id="kity_path_13" fill="none" stroke="rgb(112, 66, 86)" d="M729.5000234432518,1049.5000175498426h210a5,5,0,0,1,5,5v221a5,5,0,0,1,-5,5h-210a5,5,0,0,1,-5,-5v-221a5,5,0,0,1,5,-5z" stroke-width="5"></path></g><g id="minder_node64" opacity="1"><g id="node_expander62" style="cursor: pointer;" display="none"><path id="kity_path_794" fill="white" stroke="gray" d="M242.50001160427928,340.4999784864485A6,6,0,1,1,230.50001160427928,340.4999784864485A6,6,0,1,1,242.50001160427928,340.4999784864485"></path><path id="kity_path_795" fill="none" stroke="gray"></path></g><path id="node_outline63" fill="none" stroke="none" d="M25.50000451132655,231.49998338893056h200a5,5,0,0,1,5,5v208a5,5,0,0,1,-5,5h-200a5,5,0,0,1,-5,-5v-208a5,5,0,0,1,5,-5z" stroke-width="3"></path><g id="node_text63" fill="black"><text id="kity_text_625" text-rendering="inherit" font-family="times new roman" font-size="24" dy=".8em" y="422.0199833448231" font-weight="bold" x="100.50000451132655">3D mol</text></g><g id="node_progress29"><path id="kity_path_679" fill="#FFED83" stroke="none" d="M95.00000375509262,434.9999834150076A9,9,0,1,1,77.00000375509262,434.9999834150076A9,9,0,1,1,95.00000375509262,434.9999834150076"></path><path id="kity_path_680" fill="#43BC00" stroke="none" d="M86.00000375509262,434.9999834150076L95.00000375509262,434.9999834150076A9,9,0,0,1,77.00000375509262,434.9999834150076A9,9,0,0,1,95.00000375509262,434.9999834150076L86.00000375509262,434.9999834150076z"></path><path id="kity_path_681" fill="#8E8E8E" stroke="none" d="M86.00000323355198,427.99998289346695c4.418,0,8,3.582,8,8h1c0,-5.523,-3.477,-10,-9,-10S77.00000323355198,430.4769828934669,77.00000323355198,435.99998289346695h1C78.00000323355198,431.58198289346694,81.58200323355197,427.99998289346695,86.00000323355198,427.99998289346695z"></path><path id="kity_path_683" fill="#EEE" stroke="none" d="M91.81200323355198,432.89598289346696l-6.75,6.75l-4.5,-4.5L82.25000323355198,433.45898289346695l2.812,2.803l5.062,-5.053L91.81200323355198,432.89598289346696z"></path><path id="kity_path_682" fill="url(#kity_linearGradient_17)" stroke="none" d="M86.00000323355198,424.99998289346695C80.47700323355198,424.99998289346695,76.00000323355198,429.4769828934669,76.00000323355198,434.99998289346695c0,5.523,4.477,10,10,10s10,-4.477,10,-10C96.00000323355198,429.4769828934669,91.52300323355198,424.99998289346695,86.00000323355198,424.99998289346695zM86.00000323355198,442.99998289346695c-4.418,0,-8,-3.582,-8,-8s3.582,-8,8,-8s8,3.582,8,8S90.41800323355199,442.99998289346695,86.00000323355198,442.99998289346695z"></path></g><image id="kity_image_720" xlink:href="https://kityminder-img.gz.bcebos.com/8e629396cdc457628949efa342ae04d4f40374ed" x="25.50000451132655" y="234.49998338893056" width="200" height="183"></image></g><g id="minder_node65" opacity="1"><g id="node_expander63" style="cursor: pointer;" display="none"><path id="kity_path_797" fill="white" stroke="gray" d="M242.50001160427928,574.9999907165766A6,6,0,1,1,230.50001160427928,574.9999907165766A6,6,0,1,1,242.50001160427928,574.9999907165766"></path><path id="kity_path_798" fill="none" stroke="gray"></path></g><path id="node_outline64" fill="none" stroke="none" d="M25.500003781169653,457.49999606236815h200a5,5,0,0,1,5,5v225a5,5,0,0,1,-5,5h-200a5,5,0,0,1,-5,-5v-225a5,5,0,0,1,5,-5z" stroke-width="3"></path><g id="node_text64" fill="black"><text id="kity_text_627" text-rendering="inherit" font-family="times new roman" font-size="24" dy=".8em" y="665.0199960182607" font-weight="bold" x="86.50000378116965">Heat Map</text></g><g id="node_progress30"><path id="kity_path_685" fill="#FFED83" stroke="none" d="M81.00000302493572,677.9999960884452A9,9,0,1,1,63.00000302493572,677.9999960884452A9,9,0,1,1,81.00000302493572,677.9999960884452"></path><path id="kity_path_686" fill="#43BC00" stroke="none" d="M72.00000302493572,677.9999960884452L81.00000302493572,677.9999960884452A9,9,0,0,1,63.00000302493572,677.9999960884452A9,9,0,0,1,81.00000302493572,677.9999960884452L72.00000302493572,677.9999960884452z"></path><path id="kity_path_687" fill="#8E8E8E" stroke="none" d="M72.00000250339508,670.9999955669045c4.418,0,8,3.582,8,8h1c0,-5.523,-3.477,-10,-9,-10S63.00000250339508,673.4769955669045,63.00000250339508,678.9999955669045h1C64.00000250339508,674.5819955669045,67.58200250339507,670.9999955669045,72.00000250339508,670.9999955669045z"></path><path id="kity_path_689" fill="#EEE" stroke="none" d="M77.81200250339508,675.8959955669045l-6.75,6.75l-4.5,-4.5L68.25000250339508,676.4589955669045l2.812,2.803l5.062,-5.053L77.81200250339508,675.8959955669045z"></path><path id="kity_path_688" fill="url(#kity_linearGradient_17)" stroke="none" d="M72.00000250339508,667.9999955669045C66.47700250339508,667.9999955669045,62.00000250339508,672.4769955669045,62.00000250339508,677.9999955669045c0,5.523,4.477,10,10,10s10,-4.477,10,-10C82.00000250339508,672.4769955669045,77.52300250339508,667.9999955669045,72.00000250339508,667.9999955669045zM72.00000250339508,685.9999955669045c-4.418,0,-8,-3.582,-8,-8s3.582,-8,8,-8s8,3.582,8,8S76.41800250339509,685.9999955669045,72.00000250339508,685.9999955669045z"></path></g><image id="kity_image_721" xlink:href="https://kityminder-img.gz.bcebos.com/2837c11dab50fb36dd2df302efc7e99682368453" x="25.500003781169653" y="460.49999606236815" width="200" height="200"></image></g><g id="minder_node67" opacity="1"><g id="node_expander65" style="cursor: pointer;" display="none"><path id="kity_path_803" fill="white" stroke="gray" d="M242.50001160427928,818.0000033900142A6,6,0,1,1,230.50001160427928,818.0000033900142A6,6,0,1,1,242.50001160427928,818.0000033900142"></path><path id="kity_path_804" fill="none" stroke="gray"></path></g><path id="node_outline66" fill="none" stroke="none" d="M25.50000362470746,700.5000087358057h200a5,5,0,0,1,5,5v225a5,5,0,0,1,-5,5h-200a5,5,0,0,1,-5,-5v-225a5,5,0,0,1,5,-5z" stroke-width="3"></path><g id="node_text66" fill="black"><text id="kity_text_631" text-rendering="inherit" font-family="times new roman" font-size="24" dy=".8em" y="908.0200086916983" font-weight="bold" x="83.50000362470746">Histogram</text></g><g id="node_progress32"><path id="kity_path_697" fill="#FFED83" stroke="none" d="M78.00000286847353,921.0000087618828A9,9,0,1,1,60.00000286847353,921.0000087618828A9,9,0,1,1,78.00000286847353,921.0000087618828"></path><path id="kity_path_698" fill="#43BC00" stroke="none" d="M69.00000286847353,921.0000087618828L78.00000286847353,921.0000087618828A9,9,0,0,1,60.00000286847353,921.0000087618828A9,9,0,0,1,78.00000286847353,921.0000087618828L69.00000286847353,921.0000087618828z"></path><path id="kity_path_699" fill="#8E8E8E" stroke="none" d="M69.00000234693289,914.0000082403421c4.418,0,8,3.582,8,8h1c0,-5.523,-3.477,-10,-9,-10S60.00000234693289,916.4770082403421,60.00000234693289,922.0000082403421h1C61.00000234693289,917.5820082403421,64.58200234693288,914.0000082403421,69.00000234693289,914.0000082403421z"></path><path id="kity_path_701" fill="#EEE" stroke="none" d="M74.81200234693289,918.8960082403421l-6.75,6.75l-4.5,-4.5L65.25000234693289,919.4590082403421l2.812,2.803l5.062,-5.053L74.81200234693289,918.8960082403421z"></path><path id="kity_path_700" fill="url(#kity_linearGradient_17)" stroke="none" d="M69.00000234693289,911.0000082403421C63.47700234693289,911.0000082403421,59.00000234693289,915.4770082403421,59.00000234693289,921.0000082403421c0,5.523,4.477,10,10,10s10,-4.477,10,-10C79.00000234693289,915.4770082403421,74.52300234693288,911.0000082403421,69.00000234693289,911.0000082403421zM69.00000234693289,929.0000082403421c-4.418,0,-8,-3.582,-8,-8s3.582,-8,8,-8s8,3.582,8,8S73.4180023469329,929.0000082403421,69.00000234693289,929.0000082403421z"></path></g><image id="kity_image_722" xlink:href="https://kityminder-img.gz.bcebos.com/54e9765c842e2798dd78d52724e05f0e3bd7f5d1" x="25.50000362470746" y="703.5000087358057" width="200" height="200"></image></g><g id="minder_node68" opacity="1"><g id="node_expander66" style="cursor: pointer;" display="none"><path id="kity_path_806" fill="white" stroke="gray" d="M242.50001160427928,1061.0000160634518A6,6,0,1,1,230.50001160427928,1061.0000160634518A6,6,0,1,1,242.50001160427928,1061.0000160634518"></path><path id="kity_path_807" fill="none" stroke="gray"></path></g><path id="node_outline67" fill="none" stroke="none" d="M25.500004407018423,943.5000214092433h200a5,5,0,0,1,5,5v225a5,5,0,0,1,-5,5h-200a5,5,0,0,1,-5,-5v-225a5,5,0,0,1,5,-5z" stroke-width="3"></path><g id="node_text67" fill="black"><text id="kity_text_633" text-rendering="inherit" font-family="times new roman" font-size="24" dy=".8em" y="1151.020021365136" font-weight="bold" x="98.50000440701842">Pie plot</text></g><g id="node_progress33"><path id="kity_path_703" fill="#FFED83" stroke="none" d="M93.00000365078449,1164.0000214353204A9,9,0,1,1,75.00000365078449,1164.0000214353204A9,9,0,1,1,93.00000365078449,1164.0000214353204"></path><path id="kity_path_704" fill="#43BC00" stroke="none" d="M84.00000365078449,1164.0000214353204L93.00000365078449,1164.0000214353204A9,9,0,0,1,75.00000365078449,1164.0000214353204A9,9,0,0,1,93.00000365078449,1164.0000214353204L84.00000365078449,1164.0000214353204z"></path><path id="kity_path_705" fill="#8E8E8E" stroke="none" d="M84.00000312924385,1157.0000209137797c4.418,0,8,3.582,8,8h1c0,-5.523,-3.477,-10,-9,-10S75.00000312924385,1159.4770209137798,75.00000312924385,1165.0000209137797h1C76.00000312924385,1160.5820209137798,79.58200312924384,1157.0000209137797,84.00000312924385,1157.0000209137797z"></path><path id="kity_path_707" fill="#EEE" stroke="none" d="M89.81200312924385,1161.8960209137797l-6.75,6.75l-4.5,-4.5L80.25000312924385,1162.4590209137798l2.812,2.803l5.062,-5.053L89.81200312924385,1161.8960209137797z"></path><path id="kity_path_706" fill="url(#kity_linearGradient_17)" stroke="none" d="M84.00000312924385,1154.0000209137797C78.47700312924385,1154.0000209137797,74.00000312924385,1158.4770209137798,74.00000312924385,1164.0000209137797c0,5.523,4.477,10,10,10s10,-4.477,10,-10C94.00000312924385,1158.4770209137798,89.52300312924385,1154.0000209137797,84.00000312924385,1154.0000209137797zM84.00000312924385,1172.0000209137797c-4.418,0,-8,-3.582,-8,-8s3.582,-8,8,-8s8,3.582,8,8S88.41800312924386,1172.0000209137797,84.00000312924385,1172.0000209137797z"></path></g><image id="kity_image_723" xlink:href="https://kityminder-img.gz.bcebos.com/38564fba695a785c236fbeda54e5daa6434489c0" x="25.500004407018423" y="946.5000214092433" width="200" height="200"></image></g><g id="minder_node56"><g id="node_expander52" style="cursor: pointer;" display="none"><path id="kity_path_764" fill="white" stroke="gray" d="M1039.5000531710684,1251.500025998801A6,6,0,1,1,1027.5000531710684,1251.500025998801A6,6,0,1,1,1039.5000531710684,1251.500025998801"></path><path id="kity_path_765" fill="none" stroke="gray"></path></g><path id="node_outline53" fill="none" stroke="none" d="M1044.5000537447631,1236.500025998801h64a5,5,0,0,1,5,5v20a5,5,0,0,1,-5,5h-64a5,5,0,0,1,-5,-5v-20a5,5,0,0,1,5,-5z" stroke-width="3"></path><g id="node_text53" fill="black"><text id="kity_text_605" text-rendering="inherit" font-family="times new roman" font-size="24" dy=".8em" font-weight="bold" y="1239.0200259546937" x="1044.5000537447631">LEfSe</text></g></g><g id="minder_node55"><g id="node_expander53" style="cursor: pointer;"><path id="kity_path_767" fill="white" stroke="gray" d="M910.5000464431942,1251.500025998801A6,6,0,1,1,898.5000464431942,1251.500025998801A6,6,0,1,1,910.5000464431942,1251.500025998801"></path><path id="kity_path_768" fill="none" stroke="gray" d="M900.0000464431942,1251.500025998801L909.0000464431942,1251.500025998801"></path></g><path id="node_outline54" fill="none" stroke="none" d="M915.5000470168889,1236.500025998801h103a5,5,0,0,1,5,5v20a5,5,0,0,1,-5,5h-103a5,5,0,0,1,-5,-5v-20a5,5,0,0,1,5,-5z" stroke-width="3"></path><g id="node_text54" fill="black"><text id="kity_text_607" text-rendering="inherit" font-family="times new roman" font-size="24" dy=".8em" y="1239.0200259546937" x="915.5000470168889">Core OTU</text></g></g><g id="minder_node54" opacity="1"><g id="node_expander54" style="cursor: pointer;"><path id="kity_path_770" fill="white" stroke="gray" d="M788.5000400803983,1251.500025998801A6,6,0,1,1,776.5000400803983,1251.500025998801A6,6,0,1,1,788.5000400803983,1251.500025998801"></path><path id="kity_path_771" fill="none" stroke="gray" d="M778.0000400803983,1251.500025998801L787.0000400803983,1251.500025998801"></path></g><path id="node_outline55" fill="none" stroke="none" d="M793.500040654093,1236.500025998801h96a5,5,0,0,1,5,5v20a5,5,0,0,1,-5,5h-96a5,5,0,0,1,-5,-5v-20a5,5,0,0,1,5,-5z" stroke-width="3"></path><g id="node_text55" fill="black"><text id="kity_text_609" text-rendering="inherit" font-family="times new roman" font-size="24" dy=".8em" y="1239.0200259546937" x="793.500040654093">Biomaker</text></g></g><g id="minder_node58" opacity="1"><g id="node_expander55" style="cursor: pointer;" display="none"><path id="kity_path_773" fill="white" stroke="gray" d="M1110.500056874007,671.9999957755208A6,6,0,1,1,1098.500056874007,671.9999957755208A6,6,0,1,1,1110.500056874007,671.9999957755208"></path><path id="kity_path_774" fill="none" stroke="gray"></path></g><path id="node_outline56" fill="none" stroke="none" d="M1115.5000587515533,601.4999986700714h219a5,5,0,0,1,5,5v131a5,5,0,0,1,-5,5h-219a5,5,0,0,1,-5,-5v-131a5,5,0,0,1,5,-5z" stroke-width="3"></path><g id="node_text56" fill="black"><text id="kity_text_611" text-rendering="inherit" font-family="times new roman" font-size="24" dy=".8em" y="715.0199986259639" font-weight="bold" x="1140.5000587515533">Stacked Bar Chart</text></g><g id="node_progress27"><path id="kity_path_667" fill="#FFED83" stroke="none" d="M1135.0000579953194,727.9999986961484A9,9,0,1,1,1117.0000579953194,727.9999986961484A9,9,0,1,1,1135.0000579953194,727.9999986961484"></path><path id="kity_path_668" fill="#43BC00" stroke="none" d="M1126.0000579953194,727.9999986961484L1135.0000579953194,727.9999986961484A9,9,0,0,1,1117.0000579953194,727.9999986961484A9,9,0,0,1,1135.0000579953194,727.9999986961484L1126.0000579953194,727.9999986961484z"></path><path id="kity_path_669" fill="#8E8E8E" stroke="none" d="M1126.0000574737787,720.9999981746078c4.418,0,8,3.582,8,8h1c0,-5.523,-3.477,-10,-9,-10S1117.0000574737787,723.4769981746077,1117.0000574737787,728.9999981746078h1C1118.0000574737787,724.5819981746077,1121.5820574737788,720.9999981746078,1126.0000574737787,720.9999981746078z"></path><path id="kity_path_671" fill="#EEE" stroke="none" d="M1131.8120574737786,725.8959981746077l-6.75,6.75l-4.5,-4.5L1122.2500574737787,726.4589981746077l2.812,2.803l5.062,-5.053L1131.8120574737786,725.8959981746077z"></path><path id="kity_path_670" fill="url(#kity_linearGradient_17)" stroke="none" d="M1126.0000574737787,717.9999981746078C1120.4770574737788,717.9999981746078,1116.0000574737787,722.4769981746077,1116.0000574737787,727.9999981746078c0,5.523,4.477,10,10,10s10,-4.477,10,-10C1136.0000574737787,722.4769981746077,1131.5230574737786,717.9999981746078,1126.0000574737787,717.9999981746078zM1126.0000574737787,735.9999981746078c-4.418,0,-8,-3.582,-8,-8s3.582,-8,8,-8s8,3.582,8,8S1130.4180574737786,735.9999981746078,1126.0000574737787,735.9999981746078z"></path></g><image id="kity_image_716" xlink:href="https://kityminder-img.gz.bcebos.com/656b32927eb9d7c40d9765fa7367b0a4d761d5c3" x="1125.5000587515533" y="604.4999986700714" width="200" height="106"></image></g><g id="minder_node59" opacity="1"><g id="node_expander56" style="cursor: pointer;" display="none"><path id="kity_path_776" fill="white" stroke="gray" d="M1100.5000563524663,914.0000083968043A6,6,0,1,1,1088.5000563524663,914.0000083968043A6,6,0,1,1,1100.5000563524663,914.0000083968043"></path><path id="kity_path_777" fill="none" stroke="gray"></path></g><path id="node_outline57" fill="none" stroke="none" d="M1105.5000589601696,796.5000137425959h200a5,5,0,0,1,5,5v225a5,5,0,0,1,-5,5h-200a5,5,0,0,1,-5,-5v-225a5,5,0,0,1,5,-5z" stroke-width="3"></path><g id="node_text57" fill="black"><text id="kity_text_613" text-rendering="inherit" font-family="times new roman" font-size="24" dy=".8em" y="1004.0200136984885" font-weight="bold" x="1144.5000589601696">Venn diagram</text></g><g id="node_progress28"><path id="kity_path_673" fill="#FFED83" stroke="none" d="M1139.0000582039356,1017.0000137686729A9,9,0,1,1,1121.0000582039356,1017.0000137686729A9,9,0,1,1,1139.0000582039356,1017.0000137686729"></path><path id="kity_path_674" fill="#43BC00" stroke="none" d="M1130.0000582039356,1017.0000137686729L1139.0000582039356,1017.0000137686729A9,9,0,0,1,1121.0000582039356,1017.0000137686729A9,9,0,0,1,1139.0000582039356,1017.0000137686729L1130.0000582039356,1017.0000137686729z"></path><path id="kity_path_675" fill="#8E8E8E" stroke="none" d="M1130.000057682395,1010.0000132471323c4.418,0,8,3.582,8,8h1c0,-5.523,-3.477,-10,-9,-10S1121.000057682395,1012.4770132471323,1121.000057682395,1018.0000132471323h1C1122.000057682395,1013.5820132471323,1125.582057682395,1010.0000132471323,1130.000057682395,1010.0000132471323z"></path><path id="kity_path_677" fill="#EEE" stroke="none" d="M1135.8120576823949,1014.8960132471323l-6.75,6.75l-4.5,-4.5L1126.250057682395,1015.4590132471322l2.812,2.803l5.062,-5.053L1135.8120576823949,1014.8960132471323z"></path><path id="kity_path_676" fill="url(#kity_linearGradient_17)" stroke="none" d="M1130.000057682395,1007.0000132471323C1124.477057682395,1007.0000132471323,1120.000057682395,1011.4770132471323,1120.000057682395,1017.0000132471323c0,5.523,4.477,10,10,10s10,-4.477,10,-10C1140.000057682395,1011.4770132471323,1135.523057682395,1007.0000132471323,1130.000057682395,1007.0000132471323zM1130.000057682395,1025.0000132471323c-4.418,0,-8,-3.582,-8,-8s3.582,-8,8,-8s8,3.582,8,8S1134.4180576823949,1025.0000132471323,1130.000057682395,1025.0000132471323z"></path></g><image id="kity_image_717" xlink:href="https://kityminder-img.gz.bcebos.com/4484ba4d3d8a54b7ff68b0c4738a276c3809cb5b" x="1105.5000589601696" y="799.5000137425959" width="200" height="200"></image></g><g id="minder_node72" opacity="1"><g id="node_expander71" style="cursor: pointer;" display="none"><path id="kity_path_826" fill="white" stroke="gray" d="M1104.5000565610826,1153.0000208616257A6,6,0,1,1,1092.5000565610826,1153.0000208616257A6,6,0,1,1,1104.5000565610826,1153.0000208616257"></path><path id="kity_path_827" fill="none" stroke="gray"></path></g><path id="node_outline72" fill="none" stroke="none" d="M1109.5000590644777,1078.5000239647925h200a5,5,0,0,1,5,5v139a5,5,0,0,1,-5,5h-200a5,5,0,0,1,-5,-5v-139a5,5,0,0,1,5,-5z" stroke-width="3"></path><g id="node_text72" fill="black"><text id="kity_text_823" text-rendering="inherit" font-size="24" dy=".8em" y="1200.0200239206852" font-family="times new roman" font-weight="bold" x="1146.5000590644777">Upset diagram</text></g><image id="kity_image_830" xlink:href="https://kityminder-img.gz.bcebos.com/faeb8bdb721eae0b87b47b8330a53be27c848d12" x="1109.5000590644777" y="1081.5000239647925" width="200" height="114"></image><g id="node_progress35"><path id="kity_path_835" fill="#FFED83" stroke="none" d="M1141.0000583082438,1213.0000239908695A9,9,0,1,1,1123.0000583082438,1213.0000239908695A9,9,0,1,1,1141.0000583082438,1213.0000239908695"></path><path id="kity_path_836" fill="#43BC00" stroke="none" d="M1132.0000583082438,1213.0000239908695L1141.0000583082438,1213.0000239908695A9,9,0,0,1,1123.0000583082438,1213.0000239908695A9,9,0,0,1,1141.0000583082438,1213.0000239908695L1132.0000583082438,1213.0000239908695z"></path><path id="kity_path_837" fill="#8E8E8E" stroke="none" d="M1132.000057786703,1206.0000234693289c4.418,0,8,3.582,8,8h1c0,-5.523,-3.477,-10,-9,-10S1123.000057786703,1208.477023469329,1123.000057786703,1214.0000234693289h1C1124.000057786703,1209.582023469329,1127.5820577867032,1206.0000234693289,1132.000057786703,1206.0000234693289z"></path><path id="kity_path_839" fill="#EEE" stroke="none" d="M1137.812057786703,1210.8960234693288l-6.75,6.75l-4.5,-4.5L1128.250057786703,1211.459023469329l2.812,2.803l5.062,-5.053L1137.812057786703,1210.8960234693288z"></path><path id="kity_path_838" fill="url(#kity_linearGradient_17)" stroke="none" d="M1132.000057786703,1203.0000234693289C1126.4770577867032,1203.0000234693289,1122.000057786703,1207.477023469329,1122.000057786703,1213.0000234693289c0,5.523,4.477,10,10,10s10,-4.477,10,-10C1142.000057786703,1207.477023469329,1137.523057786703,1203.0000234693289,1132.000057786703,1203.0000234693289zM1132.000057786703,1221.0000234693289c-4.418,0,-8,-3.582,-8,-8s3.582,-8,8,-8s8,3.582,8,8S1136.418057786703,1221.0000234693289,1132.000057786703,1221.0000234693289z"></path></g></g><g id="minder_node57" opacity="1"><g id="node_expander57" style="cursor: pointer;"><path id="kity_path_779" fill="white" stroke="gray" d="M792.5000402890146,767.5000007562339A6,6,0,1,1,780.5000402890146,767.5000007562339A6,6,0,1,1,792.5000402890146,767.5000007562339"></path><path id="kity_path_780" fill="none" stroke="gray" d="M782.0000402890146,767.5000007562339L791.0000402890146,767.5000007562339"></path></g><path id="node_outline58" fill="none" stroke="none" d="M797.5000408627093,752.5000007562339h199a5,5,0,0,1,5,5v20a5,5,0,0,1,-5,5h-199a5,5,0,0,1,-5,-5v-20a5,5,0,0,1,5,-5z" stroke-width="3"></path><g id="node_text58" fill="black"><text id="kity_text_615" text-rendering="inherit" font-family="times new roman" font-size="24" dy=".8em" y="755.0200007121265" x="797.5000408627093">Species composition</text></g></g><g id="minder_node61" opacity="1"><g id="node_expander58" style="cursor: pointer;" display="none"><path id="kity_path_782" fill="white" stroke="gray" d="M942.5000481121242,136.99996787309647A6,6,0,1,1,930.5000481121242,136.99996787309647A6,6,0,1,1,942.5000481121242,136.99996787309647"></path><path id="kity_path_783" fill="none" stroke="gray"></path></g><path id="node_outline59" fill="none" stroke="none" d="M947.5000508762896,19.499973218888044h198a5,5,0,0,1,5,5v225a5,5,0,0,1,-5,5h-198a5,5,0,0,1,-5,-5v-225a5,5,0,0,1,5,-5z" stroke-width="3"></path><g id="node_text59" fill="black"><text id="kity_text_617" text-rendering="inherit" font-family="times new roman" font-size="24" dy=".8em" font-weight="bold" y="227.0199731747806" x="989.5000508762896">α Diversity</text></g><image id="kity_image_718" xlink:href="https://kityminder-img.gz.bcebos.com/942b6649f83604afbc8f17ceef565f23c72ddf40" x="947.5000508762896" y="22.499973218888044" width="198" height="200"></image></g><g id="minder_node62" opacity="1"><g id="node_expander59" style="cursor: pointer;" display="none"><path id="kity_path_785" fill="white" stroke="gray" d="M941.5000480599701,428.9999831020832A6,6,0,1,1,929.5000480599701,428.9999831020832A6,6,0,1,1,941.5000480599701,428.9999831020832"></path><path id="kity_path_786" fill="none" stroke="gray"></path></g><path id="node_outline60" fill="none" stroke="none" d="M946.5000508762896,315.4999882392585h200a5,5,0,0,1,5,5v217a5,5,0,0,1,-5,5h-200a5,5,0,0,1,-5,-5v-217a5,5,0,0,1,5,-5z" stroke-width="3"></path><g id="node_text60" fill="black"><text id="kity_text_619" text-rendering="inherit" font-family="times new roman" font-size="24" dy=".8em" font-weight="bold" y="515.0199881951511" x="989.5000508762896">β Diversity</text></g><image id="kity_image_719" xlink:href="https://kityminder-img.gz.bcebos.com/22bf108d41158be4d2e0fa46e02e5dd06cfa1d64" x="946.5000508762896" y="318.4999882392585" width="200" height="192"></image></g><g id="minder_node60" opacity="1"><g id="node_expander60" style="cursor: pointer;"><path id="kity_path_788" fill="white" stroke="gray" d="M793.5000403411686,327.4999778084457A6,6,0,1,1,781.5000403411686,327.4999778084457A6,6,0,1,1,793.5000403411686,327.4999778084457"></path><path id="kity_path_789" fill="none" stroke="gray" d="M783.0000403411686,327.4999778084457L792.0000403411686,327.4999778084457"></path></g><path id="node_outline61" fill="none" stroke="none" d="M798.5000409148633,312.4999778084457h90a5,5,0,0,1,5,5v20a5,5,0,0,1,-5,5h-90a5,5,0,0,1,-5,-5v-20a5,5,0,0,1,5,-5z" stroke-width="3"></path><g id="node_text61" fill="black"><text id="kity_text_621" text-rendering="inherit" font-family="times new roman" font-size="24" dy=".8em" y="315.01997776433825" x="798.5000409148633">Diversity</text></g></g><g id="minder_node76" opacity="1"><g id="node_expander75" style="cursor: pointer;" display="none"><path id="kity_path_896" fill="white" stroke="gray" d="M808.5000411234796,1374.0000323876739A6,6,0,1,1,796.5000411234796,1374.0000323876739A6,6,0,1,1,808.5000411234796,1374.0000323876739"></path><path id="kity_path_897" fill="none" stroke="gray"></path></g><path id="node_outline76" fill="none" stroke="none" d="M813.5000443570316,1309.5000349693h200a5,5,0,0,1,5,5v119a5,5,0,0,1,-5,5h-200a5,5,0,0,1,-5,-5v-119a5,5,0,0,1,5,-5z" stroke-width="3"></path><g id="node_text76" fill="black"><text id="kity_text_893" text-rendering="inherit" font-size="24" dy=".8em" y="1411.0200349251927" font-family="times new roman" font-weight="bold" x="864.5000443570316">Word cloud</text></g><g id="node_progress37"><path id="kity_path_899" fill="#FFED83" stroke="none" d="M859.0000436007977,1424.000034995377A9,9,0,1,1,841.0000436007977,1424.000034995377A9,9,0,1,1,859.0000436007977,1424.000034995377"></path><path id="kity_path_900" fill="#43BC00" stroke="none" d="M850.0000436007977,1424.000034995377L859.0000436007977,1424.000034995377A9,9,0,0,1,841.0000436007977,1424.000034995377A9,9,0,0,1,859.0000436007977,1424.000034995377L850.0000436007977,1424.000034995377z"></path><path id="kity_path_901" fill="#8E8E8E" stroke="none" d="M850.000043079257,1417.0000344738364c4.418,0,8,3.582,8,8h1c0,-5.523,-3.477,-10,-9,-10S841.000043079257,1419.4770344738365,841.000043079257,1425.0000344738364h1C842.000043079257,1420.5820344738365,845.582043079257,1417.0000344738364,850.000043079257,1417.0000344738364z"></path><path id="kity_path_903" fill="#EEE" stroke="none" d="M855.812043079257,1421.8960344738364l-6.75,6.75l-4.5,-4.5L846.250043079257,1422.4590344738365l2.812,2.803l5.062,-5.053L855.812043079257,1421.8960344738364z"></path><path id="kity_path_902" fill="url(#kity_linearGradient_17)" stroke="none" d="M850.000043079257,1414.0000344738364C844.477043079257,1414.0000344738364,840.000043079257,1418.4770344738365,840.000043079257,1424.0000344738364c0,5.523,4.477,10,10,10s10,-4.477,10,-10C860.000043079257,1418.4770344738365,855.523043079257,1414.0000344738364,850.000043079257,1414.0000344738364zM850.000043079257,1432.0000344738364c-4.418,0,-8,-3.582,-8,-8s3.582,-8,8,-8s8,3.582,8,8S854.418043079257,1432.0000344738364,850.000043079257,1432.0000344738364z"></path></g><image id="kity_image_904" xlink:href="https://kityminder-img.gz.bcebos.com/37cc90edc928b2423dcd8ef7f19af636782e7898" x="813.5000443570316" y="1312.5000349693" width="200" height="94"></image></g><g id="minder_node77" opacity="1"><g id="node_expander76" style="cursor: pointer;" display="none"><path id="kity_path_911" fill="white" stroke="gray" d="M792.5000402890146,1769.0000529885292A6,6,0,1,1,780.5000402890146,1769.0000529885292A6,6,0,1,1,792.5000402890146,1769.0000529885292"></path><path id="kity_path_912" fill="none" stroke="gray"></path></g><path id="node_outline77" fill="none" stroke="none" d="M797.5000442527235,1737.5000538490713h200a5,5,0,0,1,5,5v53a5,5,0,0,1,-5,5h-200a5,5,0,0,1,-5,-5v-53a5,5,0,0,1,5,-5z" stroke-width="3"></path><g id="node_text77" fill="black"><text id="kity_text_908" text-rendering="inherit" font-size="24" dy=".8em" y="1773.020053804964" font-family="times new roman" font-weight="bold" x="862.5000442527235">my-mind</text></g><g id="node_progress38"><path id="kity_path_914" fill="#FFED83" stroke="none" d="M857.0000434964895,1786.0000538751483A9,9,0,1,1,839.0000434964895,1786.0000538751483A9,9,0,1,1,857.0000434964895,1786.0000538751483"></path><path id="kity_path_915" fill="#43BC00" stroke="none" d="M848.0000434964895,1786.0000538751483L857.0000434964895,1786.0000538751483A9,9,0,0,1,839.0000434964895,1786.0000538751483A9,9,0,0,1,857.0000434964895,1786.0000538751483L848.0000434964895,1786.0000538751483z"></path><path id="kity_path_916" fill="#8E8E8E" stroke="none" d="M848.0000429749489,1779.0000533536077c4.418,0,8,3.582,8,8h1c0,-5.523,-3.477,-10,-9,-10S839.0000429749489,1781.4770533536077,839.0000429749489,1787.0000533536077h1C840.0000429749489,1782.5820533536078,843.5820429749489,1779.0000533536077,848.0000429749489,1779.0000533536077z"></path><path id="kity_path_918" fill="#EEE" stroke="none" d="M853.8120429749489,1783.8960533536076l-6.75,6.75l-4.5,-4.5L844.2500429749489,1784.4590533536077l2.812,2.803l5.062,-5.053L853.8120429749489,1783.8960533536076z"></path><path id="kity_path_917" fill="url(#kity_linearGradient_17)" stroke="none" d="M848.0000429749489,1776.0000533536077C842.4770429749489,1776.0000533536077,838.0000429749489,1780.4770533536077,838.0000429749489,1786.0000533536077c0,5.523,4.477,10,10,10s10,-4.477,10,-10C858.0000429749489,1780.4770533536077,853.5230429749489,1776.0000533536077,848.0000429749489,1776.0000533536077zM848.0000429749489,1794.0000533536077c-4.418,0,-8,-3.582,-8,-8s3.582,-8,8,-8s8,3.582,8,8S852.4180429749489,1794.0000533536077,848.0000429749489,1794.0000533536077z"></path></g><image id="kity_image_919" xlink:href="https://kityminder-img.gz.bcebos.com/461fbfc874595b62db90ece13de37e5fb7363489" x="797.5000442527235" y="1740.5000538490713" width="200" height="28"></image></g><g id="minder_node49" opacity="1"><g id="node_expander47" style="cursor: pointer;" display="none"><path id="kity_path_749" fill="white" stroke="gray" d="M270.5000130645931,1329.000030040741A6,6,0,1,1,258.5000130645931,1329.000030040741A6,6,0,1,1,270.5000130645931,1329.000030040741"></path><path id="kity_path_750" fill="none" stroke="gray"></path></g><path id="node_outline48" fill="none" stroke="none" d="M53.50000477209687,1264.5000326223671h200a5,5,0,0,1,5,5v119a5,5,0,0,1,-5,5h-200a5,5,0,0,1,-5,-5v-119a5,5,0,0,1,5,-5z" stroke-width="3"></path><g id="node_text48" fill="black"><text id="kity_text_595" text-rendering="inherit" font-family="times new roman" font-size="24" dy=".8em" y="1366.0200325782598" font-weight="bold" x="105.50000477209687">Scatter Plot</text></g><g id="node_progress23"><path id="kity_path_643" fill="#FFED83" stroke="none" d="M100.00000401586294,1379.0000326484442A9,9,0,1,1,82.00000401586294,1379.0000326484442A9,9,0,1,1,100.00000401586294,1379.0000326484442"></path><path id="kity_path_644" fill="#43BC00" stroke="none" d="M91.00000401586294,1379.0000326484442L100.00000401586294,1379.0000326484442A9,9,0,0,1,82.00000401586294,1379.0000326484442A9,9,0,0,1,100.00000401586294,1379.0000326484442L91.00000401586294,1379.0000326484442z"></path><path id="kity_path_645" fill="#8E8E8E" stroke="none" d="M91.0000034943223,1372.0000321269035c4.418,0,8,3.582,8,8h1c0,-5.523,-3.477,-10,-9,-10S82.0000034943223,1374.4770321269036,82.0000034943223,1380.0000321269035h1C83.0000034943223,1375.5820321269036,86.5820034943223,1372.0000321269035,91.0000034943223,1372.0000321269035z"></path><path id="kity_path_647" fill="#EEE" stroke="none" d="M96.8120034943223,1376.8960321269035l-6.75,6.75l-4.5,-4.5L87.2500034943223,1377.4590321269036l2.812,2.803l5.062,-5.053L96.8120034943223,1376.8960321269035z"></path><path id="kity_path_646" fill="url(#kity_linearGradient_17)" stroke="none" d="M91.0000034943223,1369.0000321269035C85.4770034943223,1369.0000321269035,81.0000034943223,1373.4770321269036,81.0000034943223,1379.0000321269035c0,5.523,4.477,10,10,10s10,-4.477,10,-10C101.0000034943223,1373.4770321269036,96.5230034943223,1369.0000321269035,91.0000034943223,1369.0000321269035zM91.0000034943223,1387.0000321269035c-4.418,0,-8,-3.582,-8,-8s3.582,-8,8,-8s8,3.582,8,8S95.4180034943223,1387.0000321269035,91.0000034943223,1387.0000321269035z"></path></g><image id="kity_image_833" xlink:href="https://kityminder-img.gz.bcebos.com/640d35c49eea84aad43c59f83611970676c9e155" x="53.50000477209687" y="1267.5000326223671" width="200" height="94"></image></g><g id="minder_node50" opacity="1"><g id="node_expander48" style="cursor: pointer;" display="none"><path id="kity_path_752" fill="white" stroke="gray" d="M270.5000130645931,1465.0000371336937A6,6,0,1,1,258.5000130645931,1465.0000371336937A6,6,0,1,1,270.5000130645931,1465.0000371336937"></path><path id="kity_path_753" fill="none" stroke="gray"></path></g><path id="node_outline49" fill="none" stroke="none" d="M53.50000576302409,1401.5000396631658h200a5,5,0,0,1,5,5v117a5,5,0,0,1,-5,5h-200a5,5,0,0,1,-5,-5v-117a5,5,0,0,1,5,-5z" stroke-width="3"></path><g id="node_text49" fill="black"><text id="kity_text_597" text-rendering="inherit" font-family="times new roman" font-size="24" dy=".8em" y="1501.0200396190585" font-weight="bold" x="124.50000576302409">Volcano</text></g><g id="node_progress24"><path id="kity_path_649" fill="#FFED83" stroke="none" d="M119.00000500679016,1514.0000396892428A9,9,0,1,1,101.00000500679016,1514.0000396892428A9,9,0,1,1,119.00000500679016,1514.0000396892428"></path><path id="kity_path_650" fill="#43BC00" stroke="none" d="M110.00000500679016,1514.0000396892428L119.00000500679016,1514.0000396892428A9,9,0,0,1,101.00000500679016,1514.0000396892428A9,9,0,0,1,119.00000500679016,1514.0000396892428L110.00000500679016,1514.0000396892428z"></path><path id="kity_path_651" fill="#8E8E8E" stroke="none" d="M110.00000448524952,1507.0000391677022c4.418,0,8,3.582,8,8h1c0,-5.523,-3.477,-10,-9,-10S101.00000448524952,1509.4770391677023,101.00000448524952,1515.0000391677022h1C102.00000448524952,1510.5820391677023,105.58200448524951,1507.0000391677022,110.00000448524952,1507.0000391677022z"></path><path id="kity_path_653" fill="#EEE" stroke="none" d="M115.81200448524952,1511.8960391677022l-6.75,6.75l-4.5,-4.5L106.25000448524952,1512.4590391677023l2.812,2.803l5.062,-5.053L115.81200448524952,1511.8960391677022z"></path><path id="kity_path_652" fill="url(#kity_linearGradient_17)" stroke="none" d="M110.00000448524952,1504.0000391677022C104.47700448524952,1504.0000391677022,100.00000448524952,1508.4770391677023,100.00000448524952,1514.0000391677022c0,5.523,4.477,10,10,10s10,-4.477,10,-10C120.00000448524952,1508.4770391677023,115.52300448524952,1504.0000391677022,110.00000448524952,1504.0000391677022zM110.00000448524952,1522.0000391677022c-4.418,0,-8,-3.582,-8,-8s3.582,-8,8,-8s8,3.582,8,8S114.41800448524953,1522.0000391677022,110.00000448524952,1522.0000391677022z"></path></g><image id="kity_image_714" xlink:href="https://kityminder-img.gz.bcebos.com/2f543377d997358588a6c86da99ee52dcc385ee9" x="53.50000576302409" y="1404.5000396631658" width="200" height="92"></image></g><g id="minder_node51" opacity="1"><g id="node_expander49" style="cursor: pointer;" display="none"><path id="kity_path_755" fill="white" stroke="gray" d="M270.5000130645931,1601.0000442266464A6,6,0,1,1,258.5000130645931,1601.0000442266464A6,6,0,1,1,270.5000130645931,1601.0000442266464"></path><path id="kity_path_756" fill="none" stroke="gray"></path></g><path id="node_outline50" fill="none" stroke="none" d="M53.50000440701842,1536.5000468082726h200a5,5,0,0,1,5,5v119a5,5,0,0,1,-5,5h-200a5,5,0,0,1,-5,-5v-119a5,5,0,0,1,5,-5z" stroke-width="3"></path><g id="node_text50" fill="black"><text id="kity_text_599" text-rendering="inherit" font-family="times new roman" font-size="24" dy=".8em" y="1638.0200467641653" font-weight="bold" x="98.50000440701842">Bubble chart</text></g><g id="node_progress25"><path id="kity_path_655" fill="#FFED83" stroke="none" d="M93.00000365078449,1651.0000468343496A9,9,0,1,1,75.00000365078449,1651.0000468343496A9,9,0,1,1,93.00000365078449,1651.0000468343496"></path><path id="kity_path_656" fill="#43BC00" stroke="none" d="M84.00000365078449,1651.0000468343496L93.00000365078449,1651.0000468343496A9,9,0,0,1,75.00000365078449,1651.0000468343496A9,9,0,0,1,93.00000365078449,1651.0000468343496L84.00000365078449,1651.0000468343496z"></path><path id="kity_path_657" fill="#8E8E8E" stroke="none" d="M84.00000312924385,1644.000046312809c4.418,0,8,3.582,8,8h1c0,-5.523,-3.477,-10,-9,-10S75.00000312924385,1646.477046312809,75.00000312924385,1652.000046312809h1C76.00000312924385,1647.582046312809,79.58200312924384,1644.000046312809,84.00000312924385,1644.000046312809z"></path><path id="kity_path_659" fill="#EEE" stroke="none" d="M89.81200312924385,1648.896046312809l-6.75,6.75l-4.5,-4.5L80.25000312924385,1649.459046312809l2.812,2.803l5.062,-5.053L89.81200312924385,1648.896046312809z"></path><path id="kity_path_658" fill="url(#kity_linearGradient_17)" stroke="none" d="M84.00000312924385,1641.000046312809C78.47700312924385,1641.000046312809,74.00000312924385,1645.477046312809,74.00000312924385,1651.000046312809c0,5.523,4.477,10,10,10s10,-4.477,10,-10C94.00000312924385,1645.477046312809,89.52300312924385,1641.000046312809,84.00000312924385,1641.000046312809zM84.00000312924385,1659.000046312809c-4.418,0,-8,-3.582,-8,-8s3.582,-8,8,-8s8,3.582,8,8S88.41800312924386,1659.000046312809,84.00000312924385,1659.000046312809z"></path></g><image id="kity_image_715" xlink:href="https://kityminder-img.gz.bcebos.com/d81c0c7fb4ff5a0c6cda98d314f8b521c7b6cecd" x="53.50000440701842" y="1539.5000468082726" width="200" height="94"></image></g><g id="minder_node73" opacity="1"><g id="node_expander72" style="cursor: pointer;" display="none"><path id="kity_path_846" fill="white" stroke="gray" d="M270.5000130645931,1791.0000541359186A6,6,0,1,1,258.5000130645931,1791.0000541359186A6,6,0,1,1,270.5000130645931,1791.0000541359186"></path><path id="kity_path_847" fill="none" stroke="gray" d="M260.0000130645931,1791.0000541359186L269.0000130645931,1791.0000541359186"></path></g><path id="node_outline73" fill="none" stroke="none" d="M52.500003311783075,1673.5000594817102h201a5,5,0,0,1,5,5v225a5,5,0,0,1,-5,5h-201a5,5,0,0,1,-5,-5v-225a5,5,0,0,1,5,-5z" stroke-width="3"></path><g id="node_text73" fill="black"><text id="kity_text_843" text-rendering="inherit" font-size="24" dy=".8em" y="1881.0200594376029" font-family="times new roman" font-weight="bold" x="77.50000331178308">Nightingale roses</text></g><g id="node_progress36"><path id="kity_path_857" fill="#FFED83" stroke="none" d="M72.00000255554914,1894.0000595077872A9,9,0,1,1,54.000002555549145,1894.0000595077872A9,9,0,1,1,72.00000255554914,1894.0000595077872"></path><path id="kity_path_858" fill="#43BC00" stroke="none" d="M63.000002555549145,1894.0000595077872L72.00000255554914,1894.0000595077872A9,9,0,0,1,54.000002555549145,1894.0000595077872A9,9,0,0,1,72.00000255554914,1894.0000595077872L63.000002555549145,1894.0000595077872z"></path><path id="kity_path_859" fill="#8E8E8E" stroke="none" d="M63.0000020340085,1887.0000589862466c4.418,0,8,3.582,8,8h1c0,-5.523,-3.477,-10,-9,-10S54.0000020340085,1889.4770589862467,54.0000020340085,1895.0000589862466h1C55.0000020340085,1890.5820589862467,58.582002034008504,1887.0000589862466,63.0000020340085,1887.0000589862466z"></path><path id="kity_path_861" fill="#EEE" stroke="none" d="M68.8120020340085,1891.8960589862465l-6.75,6.75l-4.5,-4.5L59.2500020340085,1892.4590589862466l2.812,2.803l5.062,-5.053L68.8120020340085,1891.8960589862465z"></path><path id="kity_path_860" fill="url(#kity_linearGradient_17)" stroke="none" d="M63.0000020340085,1884.0000589862466C57.47700203400851,1884.0000589862466,53.0000020340085,1888.4770589862467,53.0000020340085,1894.0000589862466c0,5.523,4.477,10,10,10s10,-4.477,10,-10C73.0000020340085,1888.4770589862467,68.5230020340085,1884.0000589862466,63.0000020340085,1884.0000589862466zM63.0000020340085,1902.0000589862466c-4.418,0,-8,-3.582,-8,-8s3.582,-8,8,-8s8,3.582,8,8S67.41800203400851,1902.0000589862466,63.0000020340085,1902.0000589862466z"></path></g><image id="kity_image_862" xlink:href="https://kityminder-img.gz.bcebos.com/5c3f1d6699e0c2a8eec8df05095f931a7b81b147" x="53.500003311783075" y="1676.5000594817102" width="200" height="200"></image></g></g></g></svg>